<?xml version="1.0" standalone="no"?>
<!DOCTYPE svg PUBLIC "-//W3C//DTD SVG 20010904//EN"
 "http://www.w3.org/TR/2001/REC-SVG-20010904/DTD/svg10.dtd">
<svg version="1.0" xmlns="http://www.w3.org/2000/svg"
 width="512.000000pt" height="512.000000pt" viewBox="0 0 512.000000 512.000000"
 preserveAspectRatio="xMidYMid meet">

<g transform="translate(0.000000,512.000000) scale(0.100000,-0.100000)"
fill="#000000" stroke="none">
<path d="M2204 4228 c-12 -5 -27 -21 -33 -34 -15 -34 -15 -525 0 -596 44 -207
250 -347 455 -309 86 16 155 51 214 110 105 105 120 168 120 508 0 278 -4 302
-47 322 -32 15 -679 14 -709 -1z"/>
<path d="M420 3911 c-69 -21 -121 -65 -156 -131 -18 -34 -19 -87 -19 -1380 l0
-1345 22 -40 c25 -47 64 -85 113 -111 34 -18 106 -19 2180 -19 l2145 0 40 22
c47 25 85 64 111 113 18 34 19 87 19 1380 0 1293 -1 1346 -19 1380 -26 49 -64
88 -111 113 -40 22 -42 22 -832 25 l-793 2 0 -152 c0 -179 -14 -249 -67 -351
-94 -178 -290 -297 -493 -297 -254 0 -486 184 -545 431 -10 42 -15 116 -15
217 l0 152 -777 -1 c-428 0 -789 -4 -803 -8z m1309 -806 c247 -59 431 -291
431 -545 0 -110 -39 -233 -101 -322 -11 -14 -19 -28 -19 -31 0 -2 26 -21 57
-42 163 -109 290 -282 349 -480 23 -78 27 -114 31 -262 l5 -171 -25 -26 -26
-26 -831 0 -831 0 -24 25 c-24 23 -25 29 -25 157 0 152 10 226 45 336 52 163
176 333 314 429 36 26 70 50 75 54 5 4 -1 20 -11 36 -157 221 -130 525 63 717
137 138 335 195 523 151z m2646 -170 c16 -15 25 -36 25 -55 0 -19 -9 -40 -25
-55 l-24 -25 -591 0 -591 0 -24 25 c-16 15 -25 36 -25 55 0 19 9 40 25 55 l24
25 591 0 591 0 24 -25z m0 -480 c16 -15 25 -36 25 -55 0 -19 -9 -40 -25 -55
l-24 -25 -591 0 -591 0 -24 25 c-16 15 -25 36 -25 55 0 19 9 40 25 55 l24 25
591 0 591 0 24 -25z m0 -480 c16 -15 25 -36 25 -55 0 -19 -9 -40 -25 -55 l-24
-25 -591 0 -591 0 -24 25 c-16 15 -25 36 -25 55 0 19 9 40 25 55 l24 25 591 0
591 0 24 -25z m0 -480 c16 -15 25 -36 25 -55 0 -19 -9 -40 -25 -55 l-24 -25
-591 0 -591 0 -24 25 c-16 15 -25 36 -25 55 0 19 9 40 25 55 l24 25 591 0 591
0 24 -25z"/>
<path d="M1503 2945 c-78 -21 -130 -51 -184 -105 -156 -156 -155 -405 2 -562
120 -120 309 -149 462 -72 146 75 239 257 209 414 -31 170 -149 295 -310 329
-68 14 -114 13 -179 -4z"/>
<path d="M1229 2052 c-85 -50 -197 -161 -247 -247 -67 -114 -102 -246 -102
-382 l0 -63 720 0 720 0 0 63 c0 203 -74 383 -214 523 -39 39 -100 87 -135
106 l-65 36 -58 -29 c-154 -78 -342 -78 -497 0 l-58 30 -64 -37z"/>
</g>
</svg>
